<svg xmlns="http://www.w3.org/2000/svg" width="111.141" height="110.037" viewBox="0 0 111.141 110.037"><g transform="translate(0 24.866) rotate(-16)"><g transform="translate(42.422 31.875) rotate(31)" fill="#a00707" stroke="#a00707" stroke-linecap="round" stroke-linejoin="bevel" stroke-width="1"><rect width="17.925" height="18.449" stroke="none"/><rect x="0.5" y="0.5" width="16.925" height="17.449" fill="none"/></g><g transform="translate(54.35 13.511) rotate(31)" fill="#144e80"><path d="M 0.8313409686088562 17.82339859008789 L 1.150905728340149 0.762662947177887 L 39.49924087524414 17.11325454711914 L 0.8313409686088562 17.82339859008789 Z" stroke="none"/><path d="M 1.636928558349609 1.513444900512695 L 1.340969085693359 17.31396102905273 L 37.1525993347168 16.65627288818359 L 1.636928558349609 1.513444900512695 M 0.6648826599121094 0.0118865966796875 L 41.84589385986328 17.57024574279785 L 0.3217124938964844 18.33284568786621 L 0.6648826599121094 0.0118865966796875 Z" stroke="none" fill="#144e80"/></g><g transform="matrix(0.559, -0.829, 0.829, 0.559, 11.132, 34.119)" fill="#144e80"><path d="M 38.83056640625 18.90408325195312 L 0.8509762287139893 18.15855407714844 L 0.5154872536659241 0.7966469526290894 L 38.83056640625 18.90408325195312 Z" stroke="none"/><path d="M 1.030967712402344 1.593273162841797 L 1.341587066650391 17.66807174682617 L 36.50559234619141 18.35833358764648 L 1.030967712402344 1.593273162841797 M -3.814697265625e-06 -5.7220458984375e-06 L 41.155517578125 19.44980430603027 L 0.3603553771972656 18.64900588989258 L -3.814697265625e-06 -5.7220458984375e-06 Z" stroke="none" fill="#144e80"/></g><g transform="matrix(-0.866, -0.5, 0.5, -0.866, 36.251, 74.748)" fill="#144e80"><path d="M 0.8245944976806641 17.8112678527832 L 1.13802182674408 0.762140691280365 L 39.51581954956055 17.11476898193359 L 0.8245944976806641 17.8112678527832 Z" stroke="none"/><path d="M 1.624301910400391 1.512842178344727 L 1.334033966064453 17.30201530456543 L 37.16592407226562 16.65699005126953 L 1.624301910400391 1.512842178344727 M 0.6517333984375 0.01144027709960938 L 41.86570358276367 17.57254981994629 L 0.3151435852050781 18.32052040100098 L 0.6517333984375 0.01144027709960938 Z" stroke="none" fill="#144e80"/></g><g transform="translate(77.201 54.115) rotate(123)" fill="#144e80"><path d="M 38.80075454711914 18.90548515319824 L 0.8458124995231628 18.1708984375 L 0.5152474045753479 0.7968173623085022 L 38.80075454711914 18.90548515319824 Z" stroke="none"/><path d="M 1.030498504638672 1.593631744384766 L 1.336570739746094 17.6803092956543 L 36.47908401489258 18.36046409606934 L 1.030498504638672 1.593631744384766 M -3.814697265625e-06 -1.9073486328125e-06 L 41.12245559692383 19.45051765441895 L 0.3550567626953125 18.66149711608887 L -3.814697265625e-06 -1.9073486328125e-06 Z" stroke="none" fill="#144e80"/></g></g></svg>